<?xml version="1.0" encoding="UTF-8"?>
<svg id="Layer_1" data-name="Layer 1" xmlns="http://www.w3.org/2000/svg" viewBox="0 0 468.72 224.83">
  <defs>
    <style>
      .cls-1 {
        fill: #231f20;
      }
    </style>
  </defs>
  <g>
    <path class="cls-1" d="M4.51,199.35c2.85-5.91,6.81-12.07,9.61-8.66,1.25,1.55.85,4.21-.3,6.76,3.9-1.7,7.86-3.15,8.51-3.4.25-.1.6.05.7.3.1.3-.05.6-.35.7-.75.3-5.66,2.2-9.76,4.11-2.35,3.96-6.01,6.96-7.01,4-.45-1.3,2.6-3.15,6.16-4.91,1.35-2.7,2.1-5.76,1.2-6.86-3.55-4.36-11.31,17.52-12.02,17.72-.25.1-1.1,0-1.2-.3-1.15-3.8,16.27-42.05,17.42-45.01.1-.3,1.1-.4,1.4-.35.25.1.45.4.35.7-1.6,4.06-10.11,23.43-14.72,35.2ZM6.96,202.86c1.05.95,2.7-.55,4.11-2.8-2.25,1.1-3.96,2.15-4.11,2.8Z"/>
    <path class="cls-1" d="M19.53,207.61c3.5.2,13.37-11.16,15.47-13.42.2-.2.55-.2.75,0s.2.55,0,.75c-2.45,2.6-12.12,14.02-16.27,13.72-6.76-.45,3.1-15.12,3.8-16.02.5-.55,1.9.55,1.75.75-.25.3-10.41,13.87-5.51,14.22ZM26.14,190.54c-.05.3-.35.5-.65.4-.3-.1-.45-.4-.4-.65.55-.95,1.95-3.55,2.4-4.16.2-.25.9-.25,1.1-.05.25.2.6.55.45.75-.6,1-2.5,3.05-2.9,3.7Z"/>
    <path class="cls-1" d="M34.55,201.91c2.05-4.41,7.46-13.97,12.57-11.67.8.35,1.05.7,1.6,1.4.15.2.1.55-.15.75-.3.1-.95.75-1.1.5-.4-.45-.55-.75-1.15-.95-6.41-2.25-12.37,12.92-13.27,16.27-3.05,2.75,2.1-14.47,2.1-14.47.1-.3,1.1-.45,1.35-.4.3.1.5.35.45.65-.25.95-1.4,4.56-2.4,7.91Z"/>
    <path class="cls-1" d="M65.39,200.46c1.55-.7,4.36-6.46,7.31-13.32,3.85-11.01,9.06-23.03,9.36-23.78l1.75.35-.05.1c-2.25,6.41-15.17,37-14.22,40.65,1.4.85,10.21-9.36,11.26-10.36.25-.15.6,0,.7.25.15.25,0,.6-.25.75-2.95,2.95-6.06,7.01-9.16,9.41-4.56,3.55-4.26-1.5-2.05-9.11-1.85,3.5-3.55,5.91-4.71,6.21-7.61,1.7-.35-18.17,6.21-12.92.2.25.25.55,0,.8-.2.2-.55.2-.75,0-4.11-2.8-10.91,13.37-5.41,10.96Z"/>
    <path class="cls-1" d="M80.91,206.81c2.85-1.65,8.01-10.81,10.11-13.42.6-.8,1.6.25,1.45.6-.1.5-.25,1.15-.55,2-5.01,16.37,7.86,3.4,12.32-1.65.2-.25.55-.25.75-.05.25.2.25.5.05.75l-2.25,2.55c-8.16,8.71-16.17,11.36-12.87-.7-2.7,4.31-6.41,10.56-9.36,11.26-6.91,1.55.15-14.27.3-14.62.35-.75,2.2.15,2.05.5,0,.05-7.56,16.07-2,12.77ZM85.66,186.49c.55.3.05,1.9-.55,1.8-.7-.35,0-2.1.55-1.8ZM90.02,186.49c.55.3.05,1.9-.55,1.8-.7-.35.05-2.1.55-1.8Z"/>
    <path class="cls-1" d="M103.49,203.96c2.15-3.2,6.16-8.61,9.01-10.06,1.35-.7,3.2-.3,3.6,1.25.55,2.25-2.5,6.96-1.3,8.01,1.65-.05,9.56-7.91,10.56-8.96.25-.2.55-.2.8.05.2.2.2.55-.05.75-6.61,6.51-9.91,8.91-11.46,9.16-3.81.25.85-7.01-.45-9.01-2.1-3.4-11.01,10.81-11.36,11.82-.15.35-.5.35-.65.25-1.25-.5,2.3-13.57,2.3-13.57.1-.25,1.15-.45,1.4-.3.3.1.45.4.35.65-.5,1.65-2.05,6.86-2.75,9.96Z"/>
    <path class="cls-1" d="M126.92,201.81c1.9-1.65,5.51-6.56,7.51-9.96.5-1.2.95-2.05,1.45-2.35l1.4.3c.05.25-.15.7-.45,1.35-.85,2.1-1.95,5.81-3.35,10.01,4.81-2.8,8.81-4.96,13.82-7.01.3-.1.6.05.7.35.1.25-.05.6-.3.7-5.61,2.25-9.81,4.46-14.77,7.56-3.71,10.71-8.81,24.43-16.47,21.73-1.6-.55-1.3-3.4-.3-6.11.95-2.35,2.5-4.56,2.65-4.81,3.2-4.81,7.56-8.46,12.42-11.46l1.8-6.01c-2.45,3.45-5.61,7.11-7.21,7.76-6.56,2.55-.85-10.31-.65-10.81.15-.25.45-.4.7-.25.3.1,1.15.4,1,.7-.1.35-6.46,14.02.05,8.31ZM123.46,209.67c-1.7,1.65-8.61,10.61-6.66,13.77,6.76.1,10.91-10.36,13.87-19.73-2.55,1.7-4.96,3.65-7.21,5.96Z"/>
    <path class="cls-1" d="M145.94,203.51c2.65.55,7.66-7.31,9.76-9.46.05-.1.5-.5.6-.55l1.2.65c-.15.6-7.21,13.57.8,7.06,2.45-2,5.01-4.81,7.26-7.11.2-.2.55-.2.75,0,.2.25.2.6-.05.8-2.1,2.15-7.61,8.41-10.56,9.16-3.25.8-2.65-2.95-1.6-6.16-2.5,3.2-6.11,7.11-8.36,6.66-7.71-1.65,5.66-18.62,9.96-13.02.15.25.1.6-.15.75-.25.2-.6.1-.75-.15-2.05-1.9-14.37,10.11-8.86,11.36Z"/>
    <path class="cls-1" d="M195.8,197.1l3.96-2.9c.2-.2.55-.15.75.1.15.25.1.55-.1.75l-4,2.95c-7.76,5.46-14.02,10.71-16.22-.55-1.4,2.3-3.3,6.61-4.46,9.11v.05l-.25.7-1.75-.35c5.11-15.32,12.67-31.74,17.92-43.41.15-.25,1.15-.4,1.45-.25.3.1.4.45.3.7-4.86,10.91-9.81,21.33-14.12,32.84.2-.35.4-.7.65-1.05,0-.2.1-.4.3-.5,3.3-4.96,7.66-8.76,14.07-10.16.25-.05.55.15.6.45,0,.3-.2.6-.5.6-6.06,1.35-10.21,5.11-13.37,9.86,1.75,11.56,7.01,6.51,14.77,1.05Z"/>
    <path class="cls-1" d="M198.46,203.51c2.65.55,7.66-7.31,9.76-9.46.05-.1.5-.5.6-.55l1.2.65c-.15.6-7.21,13.57.8,7.06,2.45-2,5.01-4.81,7.26-7.11.2-.2.55-.2.75,0,.2.25.2.6-.05.8-2.1,2.15-7.61,8.41-10.56,9.16-3.25.8-2.65-2.95-1.6-6.16-2.5,3.2-6.11,7.11-8.36,6.66-7.71-1.65,5.66-18.62,9.96-13.02.15.25.1.6-.15.75-.25.2-.6.1-.75-.15-2.05-1.9-14.37,10.11-8.86,11.36Z"/>
    <path class="cls-1" d="M228.25,203.71c-2.15.7-4-.35-2.25-5.41,1.2-3.5,2.05-5.11,1.45-5.46-.8-.55-2.95,1.1-5.11,3.45-2.1,2.35-4.16,5.36-4.86,6.36-.85,1.3-1.9,2.9-2.7,4.06l-.3.75c-.55-.2-1.25-.25-1.7-.45l.2-.35c.3-.85.7-2.05,1.4-3.81,4.96-12.67,10.16-25.58,15.37-38.15.05-.3,1-.5,1.3-.5.3.05.5.3.5.6-4.76,12.47-10.06,24.93-15.02,37.45,2.8-4.26,6.71-9.31,9.96-10.21,7.66-2.2-3,11.36,1.55,10.66,4.46-1.5,7.81-5.41,11.16-8.51.2-.2.55-.2.75,0,.2.2.2.55,0,.75-1.15,1.05-7.96,7.51-11.72,8.76Z"/>
    <path class="cls-1" d="M237.26,206.51c1.05,1.35,8.31-8.76,10.66-12.37-.3-1.25.95-2.6,1.65-1.55.1.15-.05.65-.4,1.4,1.55,1.3,4.86.6,6.36.1.25-.15.6,0,.7.25.1.3,0,.6-.3.75-1.15.4-1.45.55-2.65.7-2.5.3-3.9-.05-4.71-.65-3.45,4.91-10.06,14.72-12.17,12.02-3.15-3.91,4.46-16.62,6.26-19.38.2-.2.65-.2.85,0,.25.2.95.55.75.75-1.45,2.2-9.61,14.67-7.01,17.97Z"/>
    <path class="cls-1" d="M256.53,195.05c-1.95,5.01-.2,8.61,6.51,4.41,3.35-2.1,4-2.85,6.91-5.26.25-.2.6-.2.8,0,.2.25.2.6-.05.8-3,2.45-3.65,3.25-7.06,5.36-2.85,1.75-4.96,2.25-6.41,1.95-3.05-.75-3.96-5.11-1.5-9.66,3-5.56,6.71-6.71,8.26-5.76,2,1.3,1.1,6.21-7.11,8.26-.1,0-.25-.05-.35-.1ZM256.98,194c11.31-2.95,6.51-12.07.4-.8l-.4.8Z"/>
    <path class="cls-1" d="M282.56,199.35c2.85-5.91,6.81-12.07,9.61-8.66,1.25,1.55.85,4.21-.3,6.76,3.9-1.7,7.86-3.15,8.51-3.4.25-.1.6.05.7.3.1.3-.05.6-.35.7-.75.3-5.66,2.2-9.76,4.11-2.35,3.96-6.01,6.96-7.01,4-.45-1.3,2.6-3.15,6.16-4.91,1.35-2.7,2.1-5.76,1.2-6.86-3.55-4.36-11.31,17.52-12.02,17.72-.25.1-1.1,0-1.2-.3-1.15-3.8,16.27-42.05,17.42-45.01.1-.3,1.1-.4,1.4-.35.25.1.45.4.35.7-1.6,4.06-10.11,23.43-14.72,35.2ZM285.02,202.86c1.05.95,2.7-.55,4.11-2.8-2.25,1.1-3.96,2.15-4.11,2.8Z"/>
    <path class="cls-1" d="M297.58,207.61c3.5.2,13.37-11.16,15.47-13.42.2-.2.55-.2.75,0s.2.55,0,.75c-2.45,2.6-12.12,14.02-16.27,13.72-6.76-.45,3.1-15.12,3.8-16.02.5-.55,1.9.55,1.75.75-.25.3-10.41,13.87-5.51,14.22ZM304.19,190.54c-.05.3-.35.5-.65.4-.3-.1-.45-.4-.4-.65.55-.95,1.95-3.55,2.4-4.16.2-.25.9-.25,1.1-.05.25.2.6.55.45.75-.6,1-2.5,3.05-2.9,3.7Z"/>
    <path class="cls-1" d="M312.1,203.96c2.15-3.2,6.16-8.61,9.01-10.06,1.35-.7,3.2-.3,3.6,1.25.55,2.25-2.5,6.96-1.3,8.01,1.65-.05,9.56-7.91,10.56-8.96.25-.2.55-.2.8.05.2.2.2.55-.05.75-6.61,6.51-9.91,8.91-11.46,9.16-3.81.25.85-7.01-.45-9.01-2.1-3.4-11.01,10.81-11.36,11.82-.15.35-.5.35-.65.25-1.25-.5,2.3-13.57,2.3-13.57.1-.25,1.15-.45,1.4-.3.3.1.45.4.35.65-.5,1.65-2.05,6.86-2.75,9.96Z"/>
    <path class="cls-1" d="M346.3,199.35c2.85-5.91,6.81-12.07,9.61-8.66,1.25,1.55.85,4.21-.3,6.76,3.9-1.7,7.86-3.15,8.51-3.4.25-.1.6.05.7.3.1.3-.05.6-.35.7-.75.3-5.66,2.2-9.76,4.11-2.35,3.96-6.01,6.96-7.01,4-.45-1.3,2.6-3.15,6.16-4.91,1.35-2.7,2.1-5.76,1.2-6.86-3.55-4.36-11.31,17.52-12.02,17.72-.25.1-1.1,0-1.2-.3-1.15-3.8,16.27-42.05,17.42-45.01.1-.3,1.1-.4,1.4-.35.25.1.45.4.35.7-1.6,4.06-10.11,23.43-14.72,35.2ZM348.75,202.86c1.05.95,2.7-.55,4.11-2.8-2.25,1.1-3.96,2.15-4.11,2.8Z"/>
    <path class="cls-1" d="M361.31,207.61c3.5.2,13.37-11.16,15.47-13.42.2-.2.55-.2.75,0s.2.55,0,.75c-2.45,2.6-12.12,14.02-16.27,13.72-6.76-.45,3.1-15.12,3.8-16.02.5-.55,1.9.55,1.75.75-.25.3-10.41,13.87-5.51,14.22ZM367.92,190.54c-.05.3-.35.5-.65.4-.3-.1-.45-.4-.4-.65.55-.95,1.95-3.55,2.4-4.16.2-.25.9-.25,1.1-.05.25.2.6.55.45.75-.6,1-2.5,3.05-2.9,3.7Z"/>
    <path class="cls-1" d="M376.33,201.91c2.05-4.41,7.46-13.97,12.57-11.67.8.35,1.05.7,1.6,1.4.15.2.1.55-.15.75-.3.1-.95.75-1.1.5-.4-.45-.55-.75-1.15-.95-6.41-2.25-12.37,12.92-13.27,16.27-3.05,2.75,2.1-14.47,2.1-14.47.1-.3,1.1-.45,1.35-.4.3.1.5.35.45.65-.25.95-1.4,4.56-2.4,7.91Z"/>
    <path class="cls-1" d="M410.73,177.78c2.65-6.36,5.01-11.41,5.31-12.07.15-.3,1.2-.4,1.45-.25.3.1.4.4.25.7-.2.45-2.45,5.41-5.06,11.71,7.86.65,15.42,1.2,17.62-1.6.1-.25.45-.35.7-.15.25.1.35.45.2.7-2.65,3.4-10.81,2.9-18.97,2.2-5.66,13.82-12.37,32.99-3.2,26.93,3.91-2.65,7.76-7.91,10.66-11.61.2-.2.55-.25.75-.05.25.15.3.5.1.75-2.75,3.45-7.86,10.41-11.97,12.37-1.7.85-3.65.95-4.46.45-3.85-2.2,1.45-17.42,6.16-28.94-7.76-.7-15.27-1.35-17.87,1.2-.2.25-.55.3-.75.1-.25-.15-.3-.5-.1-.75,2.95-2.95,11.11-2.35,19.17-1.7Z"/>
    <path class="cls-1" d="M448.18,177.78c2.65-6.36,5.01-11.41,5.31-12.07.15-.3,1.5-1.25,2-.1.75,3.3-.7,6.96-3.55,11.06l-.95,1.3c7.56.6,14.62,1,16.77-1.7.1-.25.45-.35.7-.15.25.1.35.45.2.7-2.6,3.35-10.46,2.95-18.47,2.25l-1.15,1.55c-5.51,13.67-11.36,31.14-2.55,25.33,3.9-2.65,7.76-7.91,10.66-11.61.2-.2.55-.25.75-.05.25.15.3.5.1.75-2.75,3.45-7.86,10.41-11.97,12.37-1.7.85-3.65.95-4.46.45-3.1-1.75-.3-11.97,3.35-21.88-2.5,3.25-5.26,6.76-7.76,9.76h.05c-3.96,4.71-7.51,8.31-8.91,8.31-3.35,0-2.65-2.95-1.6-6.16-2.5,3.2-6.11,7.11-8.36,6.66-7.71-1.65,5.66-18.62,9.96-13.02.15.25.1.6-.15.75-.25.2-.6.1-.75-.15-2.05-1.9-14.37,10.11-8.86,11.36,2.65.55,7.66-7.31,9.76-9.46.05-.1.5-.5.6-.55l1.2.65c-.15.5-5.46,9.56-1.8,8.76,1.3-.3,4.36-3.6,7.76-7.71,3.4-4.26,7.76-9.91,10.51-13.42.35-.95.75-1.9,1.15-2.85-7.76-.7-15.27-1.35-17.87,1.2-.2.25-.55.3-.75.1-.25-.15-.3-.5-.1-.75,2.95-2.95,11.11-2.35,19.17-1.7ZM451.13,175.47c1.75-2.7,3.15-5.51,3.4-7.91-.7,1.6-1.95,4.46-3.4,7.91Z"/>
  </g>
  <g>
    <g>
      <path class="cls-1" d="M162.22,117.84c-.48-1.74-1.31-3.1-2.48-4.08-1.17-.98-2.66-1.47-4.47-1.47-1.38,0-2.57.29-3.56.86-.99.57-1.8,1.33-2.44,2.28s-1.1,2.01-1.4,3.2c-.3,1.19-.45,2.38-.45,3.59s.14,2.44.43,3.61c.29,1.17.74,2.23,1.38,3.16.63.93,1.44,1.68,2.44,2.23.99.56,2.19.83,3.61.83,2.01,0,3.63-.56,4.85-1.67,1.22-1.11,1.99-2.65,2.32-4.6h2.89c-.24,1.29-.62,2.47-1.15,3.54-.53,1.07-1.2,1.98-2.03,2.75-.83.77-1.81,1.36-2.95,1.78-1.14.42-2.45.63-3.92.63-1.86,0-3.47-.32-4.83-.95-1.35-.63-2.47-1.5-3.34-2.59-.87-1.1-1.52-2.4-1.94-3.9-.42-1.5-.63-3.11-.63-4.83,0-1.62.23-3.18.7-4.67.47-1.49,1.15-2.8,2.05-3.95.9-1.14,2.02-2.05,3.36-2.73,1.34-.68,2.88-1.01,4.62-1.01,2.71,0,4.89.65,6.56,1.94,1.67,1.29,2.71,3.31,3.13,6.04h-2.75Z"/>
      <path class="cls-1" d="M193.57,134.48c-1.5-.03-2.91-.3-4.22-.81-1.31-.51-2.45-1.28-3.43-2.3-.98-1.02-1.75-2.3-2.32-3.83-.57-1.53-.86-3.32-.86-5.37,0-1.71.23-3.31.68-4.8s1.13-2.79,2.03-3.9c.9-1.11,2.03-1.99,3.38-2.64,1.35-.65,2.93-.97,4.74-.97s3.43.32,4.78.97c1.35.65,2.48,1.52,3.38,2.62.9,1.1,1.57,2.4,2.01,3.9.44,1.5.65,3.11.65,4.83,0,1.86-.26,3.55-.77,5.05-.51,1.5-1.24,2.8-2.19,3.88-.95,1.08-2.09,1.92-3.43,2.5-1.34.59-2.82.88-4.44.88ZM201.51,122.16c0-1.38-.15-2.68-.45-3.88-.3-1.2-.77-2.25-1.4-3.13-.63-.89-1.44-1.59-2.44-2.1-.99-.51-2.21-.77-3.65-.77s-2.62.28-3.63.83c-1.01.56-1.83,1.29-2.46,2.21-.63.92-1.1,1.97-1.4,3.16-.3,1.19-.45,2.41-.45,3.68,0,1.44.17,2.77.52,3.99.35,1.22.85,2.26,1.51,3.13.66.87,1.49,1.55,2.48,2.03.99.48,2.13.72,3.43.72,1.41,0,2.62-.28,3.63-.83,1.01-.56,1.83-1.3,2.46-2.23.63-.93,1.1-1.98,1.4-3.16.3-1.17.45-2.39.45-3.65Z"/>
      <path class="cls-1" d="M220.54,112.74v-2.25h3.47v-3.7c0-1.86.38-3.34,1.13-4.42.75-1.08,2.03-1.62,3.83-1.62.42,0,.81.02,1.17.05.36.03.72.08,1.08.14v2.48c-.6-.15-1.14-.23-1.62-.23-.69,0-1.23.13-1.62.38-.39.26-.68.59-.86,1.01-.18.42-.29.89-.34,1.42-.04.53-.07,1.06-.07,1.6v2.89h4.51v2.25h-4.51v21.11h-2.71v-21.11h-3.47Z"/>
      <path class="cls-1" d="M246.61,112.74v-2.25h3.47v-3.7c0-1.86.38-3.34,1.13-4.42.75-1.08,2.03-1.62,3.83-1.62.42,0,.81.02,1.17.05.36.03.72.08,1.08.14v2.48c-.6-.15-1.14-.23-1.62-.23-.69,0-1.23.13-1.62.38-.39.26-.68.59-.86,1.01-.18.42-.29.89-.34,1.42-.04.53-.07,1.06-.07,1.6v2.89h4.51v2.25h-4.51v21.11h-2.71v-21.11h-3.47Z"/>
      <path class="cls-1" d="M276.69,122.8c0,1.26.17,2.46.5,3.59.33,1.13.82,2.1,1.47,2.93.65.83,1.47,1.49,2.46,1.98.99.5,2.13.74,3.43.74,1.77,0,3.29-.47,4.56-1.4,1.26-.93,2.1-2.25,2.53-3.97h3.02c-.33,1.11-.77,2.14-1.31,3.09-.54.95-1.22,1.77-2.03,2.48-.81.71-1.77,1.26-2.89,1.65-1.11.39-2.41.59-3.88.59-1.86,0-3.47-.32-4.83-.95-1.35-.63-2.47-1.5-3.34-2.59-.87-1.1-1.52-2.39-1.94-3.88-.42-1.49-.63-3.09-.63-4.8s.25-3.32.74-4.83c.5-1.5,1.2-2.82,2.12-3.95.92-1.13,2.04-2.01,3.36-2.66,1.32-.65,2.83-.97,4.51-.97,3.22,0,5.74,1.11,7.58,3.32,1.83,2.21,2.74,5.42,2.71,9.63h-18.13ZM291.93,120.54c0-1.14-.16-2.22-.47-3.22-.32-1.01-.78-1.88-1.4-2.62-.62-.74-1.39-1.32-2.32-1.76-.93-.44-2-.65-3.2-.65s-2.26.23-3.18.68c-.92.45-1.7,1.05-2.35,1.8-.65.75-1.17,1.62-1.56,2.62-.39.99-.65,2.04-.77,3.16h15.24Z"/>
      <path class="cls-1" d="M315.29,122.8c0,1.26.17,2.46.5,3.59.33,1.13.82,2.1,1.47,2.93.65.83,1.47,1.49,2.46,1.98.99.5,2.13.74,3.43.74,1.77,0,3.29-.47,4.56-1.4,1.26-.93,2.1-2.25,2.53-3.97h3.02c-.33,1.11-.77,2.14-1.31,3.09-.54.95-1.22,1.77-2.03,2.48-.81.71-1.77,1.26-2.89,1.65-1.11.39-2.41.59-3.88.59-1.86,0-3.47-.32-4.83-.95-1.35-.63-2.47-1.5-3.34-2.59-.87-1.1-1.52-2.39-1.94-3.88-.42-1.49-.63-3.09-.63-4.8s.25-3.32.74-4.83c.5-1.5,1.2-2.82,2.12-3.95.92-1.13,2.04-2.01,3.36-2.66,1.32-.65,2.83-.97,4.51-.97,3.22,0,5.74,1.11,7.58,3.32,1.83,2.21,2.74,5.42,2.71,9.63h-18.13ZM330.54,120.54c0-1.14-.16-2.22-.47-3.22-.32-1.01-.78-1.88-1.4-2.62-.62-.74-1.39-1.32-2.32-1.76-.93-.44-2-.65-3.2-.65s-2.26.23-3.18.68c-.92.45-1.7,1.05-2.35,1.8-.65.75-1.17,1.62-1.56,2.62-.39.99-.65,2.04-.77,3.16h15.24Z"/>
    </g>
    <g>
      <path class="cls-1" d="M117.1,35.55c3.07,0,5.92.69,8.57,2.07,2.65,1.38,4.97,3.26,6.96,5.64,1.99,2.38,3.57,5.16,4.72,8.34,1.15,3.18,1.73,6.58,1.73,10.18s-.58,7-1.73,10.18c-1.15,3.18-2.72,5.96-4.72,8.34-2,2.38-4.31,4.24-6.96,5.58-2.65,1.34-5.5,2.01-8.57,2.01-.77,0-1.52-.02-2.24-.06-.73-.04-1.48-.13-2.24-.29l-.35-.12v-2.3l.81.58c1.23.92,2.57,1.38,4.03,1.38h.11c1.61,0,3.16-.65,4.66-1.96,1.5-1.3,2.78-3.07,3.85-5.29,1.15-2.3,2.07-5,2.76-8.11.69-3.11,1.04-6.42,1.04-9.95s-.35-6.85-1.04-9.95c-.69-3.11-1.61-5.81-2.76-8.11-1.07-2.22-2.36-3.99-3.85-5.29-1.5-1.3-3.05-1.96-4.66-1.96h-.23c-1.61,0-3.16.65-4.66,1.96-1.5,1.3-2.82,3.07-3.97,5.29-1.15,2.3-2.05,5-2.7,8.11-.65,3.11-.98,6.42-.98,9.95v59.6h8.05v.92h-25.77v-.92h8.17V45.79c-.38.46-.9,1.06-1.55,1.78-.65.73-1.29,1.63-1.9,2.7-1.07,1.54-2.05,3.32-2.93,5.35-.88,2.03-1.32,4.08-1.32,6.16h-.92c0-2.07.4-4.08,1.21-6.04.81-1.96,1.71-3.72,2.7-5.29,1-1.57,1.96-2.89,2.88-3.97.92-1.07,1.53-1.76,1.84-2.07l9.55-9.55v5.29c1.76-1.46,3.7-2.59,5.81-3.39,2.11-.81,4.31-1.21,6.62-1.21Z"/>
      <path class="cls-1" d="M198.67,53.38v8.63c-.08,3.61-.69,6.96-1.84,10.07-1.15,3.11-2.72,5.85-4.72,8.23-2,2.38-4.31,4.24-6.96,5.58-2.65,1.34-5.47,2.01-8.46,2.01s-5.93-.69-8.57-2.07-4.97-3.26-6.96-5.64c-2-2.38-3.59-5.16-4.77-8.34-1.19-3.18-1.78-6.58-1.78-10.18v-16.22c-.38.46-.88,1.07-1.5,1.84-.62.77-1.27,1.65-1.96,2.65-1.07,1.61-2.05,3.43-2.93,5.47-.88,2.03-1.32,4.08-1.32,6.16h-.92c0-2.07.4-4.08,1.21-6.04.81-1.96,1.71-3.74,2.7-5.35,1-1.61,1.97-2.95,2.93-4.03.96-1.07,1.55-1.76,1.78-2.07l9.55-9.55v27.04c0,3.53.35,6.85,1.04,9.95.69,3.11,1.61,5.81,2.76,8.11,1.15,2.3,2.45,4.08,3.91,5.35,1.46,1.27,3.03,1.9,4.72,1.9h.23c1.61,0,3.16-.63,4.66-1.9,1.5-1.27,2.78-3.05,3.85-5.35,1.15-2.3,2.07-5,2.76-8.11s1.04-6.42,1.04-9.95v-25.43h-8.17v-1.04h25.89v1.04h-8.17v17.26Z"/>
      <path class="cls-1" d="M244.46,35.21c3.07,0,5.93.69,8.57,2.07s4.97,3.26,6.96,5.64c1.99,2.38,3.57,5.18,4.72,8.4,1.15,3.22,1.73,6.64,1.73,10.24s-.58,7.02-1.73,10.24c-1.15,3.22-2.72,6.02-4.72,8.4-2,2.38-4.31,4.26-6.96,5.64s-5.5,2.07-8.57,2.07c-1.69,0-3.18-.15-4.49-.46l-.35-.12v-2.19l.81.46c1.23.92,2.57,1.38,4.03,1.38h.12c1.61,0,3.16-.65,4.66-1.96,1.5-1.3,2.78-3.07,3.85-5.29,1.15-2.3,2.07-5,2.76-8.11s1.04-6.46,1.04-10.07-.35-6.85-1.04-9.95c-.69-3.11-1.61-5.81-2.76-8.11-1.07-2.22-2.36-3.99-3.85-5.29-1.5-1.3-3.05-1.96-4.66-1.96h-.23c-1.69,0-3.26.65-4.72,1.96-1.46,1.31-2.76,3.07-3.91,5.29-1.15,2.3-2.07,5-2.76,8.11-.69,3.11-1.04,6.43-1.04,9.95v26.35h-17.72v-.92h8.17V11.04c-.38.46-.88,1.06-1.5,1.78-.62.73-1.27,1.63-1.96,2.7-1.07,1.54-2.05,3.32-2.93,5.35-.88,2.03-1.32,4.08-1.32,6.16h-.92c0-2.07.4-4.08,1.21-6.04.81-1.96,1.71-3.72,2.7-5.29,1-1.57,1.97-2.89,2.93-3.97.96-1.07,1.55-1.76,1.78-2.07l9.55-9.66v39.81c1.76-1.46,3.7-2.59,5.81-3.39,2.11-.81,4.35-1.21,6.73-1.21Z"/>
      <path class="cls-1" d="M299.69,86.98v.92h-25.89v-.92h8.17V10.93c-.38.46-.88,1.07-1.5,1.84-.62.77-1.27,1.65-1.96,2.65-1.07,1.61-2.05,3.43-2.93,5.47-.88,2.03-1.32,4.08-1.32,6.16h-.92c0-2.07.4-4.08,1.21-6.04.81-1.96,1.71-3.74,2.7-5.35,1-1.61,1.97-2.95,2.93-4.03.96-1.07,1.55-1.76,1.78-2.07l9.55-9.55v86.98h8.17Z"/>
      <path class="cls-1" d="M332.94,86.98v.92h-25.89v-.92h8.17v-41.42c-.38.46-.88,1.07-1.5,1.84-.62.77-1.27,1.65-1.96,2.65-1.07,1.61-2.05,3.41-2.93,5.41-.88,2-1.32,4.07-1.32,6.21h-.92c0-2.07.4-4.1,1.21-6.1.81-1.99,1.71-3.78,2.7-5.35,1-1.57,1.97-2.89,2.93-3.97.96-1.07,1.55-1.76,1.78-2.07l9.55-9.55v52.35h8.17ZM320.05,27.61c-1.31,0-2.44-.47-3.39-1.42-.96-.95-1.44-2.07-1.44-3.35s.48-2.41,1.44-3.35c.96-.95,2.09-1.42,3.39-1.42s2.42.47,3.34,1.42c.92.95,1.38,2.07,1.38,3.35s-.46,2.41-1.38,3.35c-.92.95-2.03,1.42-3.34,1.42Z"/>
      <path class="cls-1" d="M372.79,76.98s-.07.03-.11.04c-.54.2-.86.3-.86.3l-.23.12-.12.23c-1.15,2.92-2.28,3.88-4,5.3s-3.61,1.85-5.45,1.93h-.23c-1.69,0-3.21-.27-5.1-1.39-1.68-1-2.36-1.58-3.51-3.88-1.15-2.3-2.07-4.98-2.76-8.05-.69-3.07-1.04-6.4-1.04-10.01s.35-6.85,1.04-9.95c.69-3.11,1.61-5.81,2.76-8.11,2.38-4.75,5.25-7.21,8.63-7.36h.23c2.38.08,4.56,1.44,6.56,4.08,1.99,2.65,3.53,6.16,4.6,10.53l.12.81.58-.46c1.07-.84,2.11-1.59,3.11-2.24,1-.65,1.92-1.28,2.76-1.9l.35-.23-.23-.35c-2-3.45-4.56-6.17-7.71-8.17-3.15-1.99-6.56-2.99-10.24-2.99-3.07,0-5.94.69-8.63,2.07-2.69,1.38-5.02,3.26-7.02,5.64-2,2.38-3.57,5.18-4.72,8.4-1.15,3.22-1.73,6.64-1.73,10.24s.58,7.02,1.73,10.24c1.15,3.22,2.72,6.02,4.72,8.4,1.99,2.38,4.33,4.26,7.02,5.64,2.68,1.38,5.56,2.07,8.63,2.07s5.81-.67,8.46-2.01c2.65-1.34,4.95-3.16,6.9-5.46,1.96-2.3,3.53-5,4.72-8.11.08-.21.15-.41.22-.62-3.74,2.97-7.67,4.63-9.44,5.29Z"/>
    </g>
  </g>
</svg>